<?xml version="1.0" encoding="UTF-8" standalone="no"?>
<svg width="300" height="300" viewBox="0 0 300 300" fill="none" xmlns="http://www.w3.org/2000/svg">
  <rect width="300" height="300" fill="#f0f0f0"/>
  <path d="M150 70C123.49 70 102 91.49 102 118C102 144.51 123.49 166 150 166C176.51 166 198 144.51 198 118C198 91.49 176.51 70 150 70ZM150 154C130.12 154 114 137.88 114 118C114 98.12 130.12 82 150 82C169.88 82 186 98.12 186 118C186 137.88 169.88 154 150 154Z" fill="#3a86ff"/>
  <path d="M150 178C111.4 178 80 209.4 80 248V250H220V248C220 209.4 188.6 178 150 178ZM208 238H92C94.32 210.36 119.28 190 150 190C180.72 190 205.68 210.36 208 238Z" fill="#3a86ff"/>
  <text x="150" y="210" font-family="Arial, sans-serif" font-size="14" text-anchor="middle" fill="#3a86ff">QuickKart Product</text>
</svg>
